<svg width="389" height="27" viewBox="0 0 389 27" fill="none" xmlns="http://www.w3.org/2000/svg">
<path d="M0.591064 17.496C0.699064 24.516 6.13506 26.64 16.4671 26.64C24.8911 26.64 30.6511 25.092 30.6511 19.116C30.6511 13.248 25.5751 12.816 15.6391 12.168C6.92706 11.592 3.86706 10.908 3.86706 6.84C3.86706 3.276 6.92706 1.908 14.7391 1.908C23.0911 1.908 27.3751 3.528 27.3751 8.712H29.5711C29.5711 2.736 24.7471 0 15.4591 0C6.42307 0 1.67106 1.656 1.67106 6.768C1.67106 11.88 4.98306 13.5 15.6391 14.112C25.5031 14.688 28.4551 15.156 28.4551 19.188C28.4551 23.292 24.4231 24.732 16.7191 24.732C6.81907 24.732 2.78706 22.824 2.78706 17.496H0.591064Z" fill="#141414"/>
<path d="M74.4515 25.92V3.096L89.3555 25.92H91.2995L106.204 3.096V25.92H108.292V0.719999H105.34L90.3275 23.616L75.3155 0.719999H72.3635V25.92H74.4515Z" fill="#141414"/>
<path d="M165.499 26.64C175.471 26.64 180.979 21.312 180.979 13.284C180.979 5.292 175.471 0 165.499 0C155.491 0 150.019 5.256 150.019 13.284C150.019 21.348 155.491 26.64 165.499 26.64ZM165.499 24.732C157.111 24.732 152.215 20.412 152.215 13.284C152.215 6.192 157.075 1.908 165.499 1.908C173.923 1.908 178.747 6.228 178.747 13.284C178.747 20.376 173.887 24.732 165.499 24.732Z" fill="#141414"/>
<path d="M237.785 26.64C247.757 26.64 253.265 21.312 253.265 13.284C253.265 5.292 247.757 0 237.785 0C227.777 0 222.305 5.256 222.305 13.284C222.305 21.348 227.777 26.64 237.785 26.64ZM237.785 24.732C229.397 24.732 224.501 20.412 224.501 13.284C224.501 6.192 229.361 1.908 237.785 1.908C246.209 1.908 251.033 6.228 251.033 13.284C251.033 20.376 246.173 24.732 237.785 24.732Z" fill="#141414"/>
<path d="M307.276 24.156L293.38 0.719999H291.004L305.98 25.92H308.536L323.548 0.719999H321.136L307.276 24.156Z" fill="#141414"/>
<path d="M364.177 0.719999V25.92H388.873V24.012H366.265V14.292H388.153V12.348H366.265V2.628H388.873V0.719999H364.177Z" fill="#141414"/>
</svg>
