<svg width="376" height="109" viewBox="0 0 376 109" fill="none" xmlns="http://www.w3.org/2000/svg">
<path d="M204.784 16.717L203.584 18.253C203.04 20.045 202.528 21.597 202.048 22.909C201.6 24.189 201.184 25.245 200.8 26.077C199.424 29.053 197.616 31.821 195.376 34.381C192.752 37.421 189.28 40.413 184.96 43.357C184.736 43.197 184.544 43.053 184.384 42.925C184.256 42.797 184.128 42.701 184 42.637C183.552 42.317 183.168 42.045 182.848 41.821C182.56 41.597 182.304 41.405 182.08 41.245C184.736 39.517 187.056 37.805 189.04 36.109C191.056 34.381 192.736 32.621 194.08 30.829C196.8 27.277 198.896 22.941 200.368 17.821H188.416C187.904 18.589 187.28 19.453 186.544 20.413C185.84 21.373 184.976 22.413 183.952 23.533C183.056 24.525 182.272 25.357 181.6 26.029C180.928 26.701 180.352 27.245 179.872 27.661C179.648 27.501 179.456 27.357 179.296 27.229C179.168 27.101 179.056 27.005 178.96 26.941C178.544 26.685 178.176 26.461 177.856 26.269C177.568 26.045 177.312 25.869 177.088 25.741C178.304 24.717 179.472 23.597 180.592 22.381C181.712 21.133 182.832 19.789 183.952 18.349C185.2 16.685 186.24 15.117 187.072 13.645C187.904 12.141 188.544 10.685 188.992 9.27702L190.816 9.99702C191.744 10.445 192.208 10.797 192.208 11.053C192.208 11.437 191.968 11.837 191.488 12.253C191.264 12.605 191.104 12.909 191.008 13.165C190.496 14.093 190.192 14.605 190.096 14.701H201.568L202.528 14.317L204.784 16.717Z" fill="#EDEDED"/>
<path d="M200.755 55.4554V37.8394H179.731V55.4554H200.755ZM204.211 60.9754H200.755V58.7194H179.731V60.9754H176.323L176.419 34.6714H204.115L204.211 60.9754Z" fill="#EDEDED"/>
<path d="M204.697 69.019L203.209 70.363C202.857 70.971 202.329 71.707 201.625 72.571C200.953 73.435 200.105 74.427 199.081 75.547C196.873 78.043 194.761 80.075 192.745 81.643C192.937 81.867 193.225 82.203 193.609 82.651C193.993 83.067 194.457 83.627 195.001 84.331C195.545 85.067 196.009 85.691 196.393 86.203C196.777 86.683 197.049 87.099 197.209 87.451L194.617 89.419C194.009 88.235 192.569 86.347 190.297 83.755C187.833 80.875 185.753 78.811 184.057 77.563L186.217 75.451C186.441 75.579 186.713 75.787 187.033 76.075C187.353 76.331 187.769 76.667 188.281 77.083C188.761 77.531 189.177 77.915 189.529 78.235C189.913 78.523 190.217 78.779 190.441 79.003C190.985 78.651 191.641 78.123 192.409 77.419C193.177 76.683 194.073 75.771 195.097 74.683C197.241 72.507 198.537 70.955 198.985 70.027H176.713V66.859H201.337L202.633 66.331L204.697 69.019Z" fill="#EDEDED"/>
<path d="M28.8843 33.445L6.42033 50.041V33.445H4.33233V58.645H6.42033V52.633L15.9963 45.541L29.3163 58.645H32.3403L17.6883 44.281L32.3403 33.445H28.8843ZM66.5066 45.073V33.445H64.4186V58.645H66.5066V47.017H90.9866V58.645H93.0746V33.445H90.9866V45.073H66.5066ZM149.287 47.197C152.131 46.153 153.571 44.029 153.571 40.681C153.571 35.749 150.367 33.445 144.175 33.445H126.895V58.645H128.983V48.673H147.271C149.827 48.673 151.123 49.717 151.123 52.129V58.645H153.211V51.769C153.211 49.177 151.699 47.557 149.287 47.197ZM143.815 35.353C148.423 35.353 151.375 36.433 151.375 40.933C151.375 45.433 148.423 46.729 143.815 46.729H128.983V35.353H143.815ZM231.789 58.645V35.821L246.693 58.645H248.637L263.541 35.821V58.645H265.629V33.445H262.677L247.665 56.341L232.653 33.445H229.701V58.645H231.789ZM330.092 58.645L315.08 33.445H312.524L297.548 58.645H299.924L303.74 52.201H323.864L327.68 58.645H330.092ZM313.82 35.209L322.712 50.257H304.892L313.82 35.209Z" fill="#EDEDED"/>
</svg>
