<svg width="389" height="27" viewBox="0 0 389 27" fill="red" xmlns="http://www.w3.org/2000/svg">
<path d="M0 17.496C0.108 24.516 5.544 26.64 15.876 26.64C24.3 26.64 30.06 25.092 30.06 19.116C30.06 13.248 24.984 12.816 15.048 12.168C6.336 11.592 3.276 10.908 3.276 6.84C3.276 3.276 6.336 1.908 14.148 1.908C22.5 1.908 26.784 3.528 26.784 8.712H28.98C28.98 2.736 24.156 0 14.868 0C5.832 0 1.08 1.656 1.08 6.768C1.08 11.88 4.392 13.5 15.048 14.112C24.912 14.688 27.864 15.156 27.864 19.188C27.864 23.292 23.832 24.732 16.128 24.732C6.228 24.732 2.196 22.824 2.196 17.496H0Z" fill="#141414"/>
<path d="M73.8605 25.92V3.096L88.7645 25.92H90.7085L105.612 3.096V25.92H107.7V0.719999H104.748L89.7365 23.616L74.7245 0.719999H71.7725V25.92H73.8605Z" fill="#141414"/>
<path d="M164.908 26.64C174.88 26.64 180.388 21.312 180.388 13.284C180.388 5.292 174.88 0 164.908 0C154.9 0 149.428 5.256 149.428 13.284C149.428 21.348 154.9 26.64 164.908 26.64ZM164.908 24.732C156.52 24.732 151.624 20.412 151.624 13.284C151.624 6.192 156.484 1.908 164.908 1.908C173.332 1.908 178.156 6.228 178.156 13.284C178.156 20.376 173.296 24.732 164.908 24.732Z" fill="#141414"/>
<path d="M237.194 26.64C247.166 26.64 252.674 21.312 252.674 13.284C252.674 5.292 247.166 0 237.194 0C227.186 0 221.714 5.256 221.714 13.284C221.714 21.348 227.186 26.64 237.194 26.64ZM237.194 24.732C228.806 24.732 223.91 20.412 223.91 13.284C223.91 6.192 228.77 1.908 237.194 1.908C245.618 1.908 250.442 6.228 250.442 13.284C250.442 20.376 245.582 24.732 237.194 24.732Z" fill="#141414"/>
<path d="M306.685 24.156L292.789 0.719999H290.413L305.389 25.92H307.945L322.957 0.719999H320.545L306.685 24.156Z" fill="#141414"/>
<path d="M363.586 0.719999V25.92H388.282V24.012H365.674V14.292H387.562V12.348H365.674V2.628H388.282V0.719999H363.586Z" fill="#141414"/>
</svg>
